<svg width="381" height="403" viewBox="0 0 381 403" fill="none" xmlns="http://www.w3.org/2000/svg">
<g filter="url(#filter0_d_1_268)">
<rect x="75" y="110" width="282" height="242" rx="20" fill="white"/>
</g>
<path d="M101.912 294V292.392C102.968 291.368 103.92 290.424 104.768 289.56C105.632 288.696 106.36 287.896 106.952 287.16C107.56 286.424 108.024 285.736 108.344 285.096C108.664 284.456 108.824 283.848 108.824 283.272C108.824 282.456 108.608 281.816 108.176 281.352C107.744 280.872 107.12 280.632 106.304 280.632C105.712 280.632 105.168 280.8 104.672 281.136C104.192 281.472 103.744 281.872 103.328 282.336L101.792 280.8C102.496 280.048 103.216 279.472 103.952 279.072C104.704 278.656 105.608 278.448 106.664 278.448C107.4 278.448 108.064 278.56 108.656 278.784C109.248 279.008 109.752 279.328 110.168 279.744C110.584 280.144 110.904 280.632 111.128 281.208C111.368 281.784 111.488 282.424 111.488 283.128C111.488 283.8 111.336 284.488 111.032 285.192C110.744 285.88 110.344 286.584 109.832 287.304C109.336 288.008 108.752 288.736 108.08 289.488C107.408 290.24 106.696 291.016 105.944 291.816C106.344 291.784 106.776 291.752 107.24 291.72C107.704 291.672 108.12 291.648 108.488 291.648H112.232V294H101.912ZM120.481 294V290.064H113.737V288.192L119.785 278.736H123.073V287.928H124.993V290.064H123.073V294H120.481ZM116.473 287.928H120.481V284.472C120.481 284.024 120.489 283.496 120.505 282.888C120.537 282.28 120.569 281.752 120.601 281.304H120.505C120.313 281.704 120.113 282.096 119.905 282.48C119.697 282.864 119.481 283.264 119.257 283.68L116.473 287.928ZM132.406 294V278.304H135.19V284.616H141.55V278.304H144.334V294H141.55V287.04H135.19V294H132.406ZM152.904 294.288C152.168 294.288 151.464 294.152 150.792 293.88C150.12 293.608 149.52 293.208 148.992 292.68C148.48 292.152 148.072 291.504 147.768 290.736C147.464 289.968 147.312 289.096 147.312 288.12C147.312 287.144 147.464 286.272 147.768 285.504C148.072 284.736 148.48 284.088 148.992 283.56C149.52 283.032 150.12 282.632 150.792 282.36C151.464 282.072 152.168 281.928 152.904 281.928C153.64 281.928 154.344 282.072 155.016 282.36C155.704 282.632 156.304 283.032 156.816 283.56C157.328 284.088 157.736 284.736 158.04 285.504C158.36 286.272 158.52 287.144 158.52 288.12C158.52 289.096 158.36 289.968 158.04 290.736C157.736 291.504 157.328 292.152 156.816 292.68C156.304 293.208 155.704 293.608 155.016 293.88C154.344 294.152 153.64 294.288 152.904 294.288ZM152.904 292.032C153.768 292.032 154.448 291.68 154.944 290.976C155.44 290.256 155.688 289.304 155.688 288.12C155.688 286.92 155.44 285.968 154.944 285.264C154.448 284.544 153.768 284.184 152.904 284.184C152.04 284.184 151.36 284.544 150.864 285.264C150.384 285.968 150.144 286.92 150.144 288.12C150.144 289.304 150.384 290.256 150.864 290.976C151.36 291.68 152.04 292.032 152.904 292.032ZM164.756 294.288C163.492 294.288 162.572 293.888 161.996 293.088C161.42 292.272 161.132 291.112 161.132 289.608V282.216H163.892V289.248C163.892 290.224 164.036 290.912 164.324 291.312C164.612 291.712 165.076 291.912 165.716 291.912C166.228 291.912 166.676 291.784 167.06 291.528C167.46 291.272 167.884 290.856 168.332 290.28V282.216H171.092V294H168.836L168.62 292.272H168.548C168.036 292.88 167.476 293.368 166.868 293.736C166.276 294.104 165.572 294.288 164.756 294.288ZM174.588 294V282.216H176.868L177.06 284.304H177.156C177.572 283.536 178.076 282.952 178.668 282.552C179.26 282.136 179.868 281.928 180.492 281.928C181.052 281.928 181.5 282.008 181.836 282.168L181.356 284.568C181.148 284.504 180.956 284.456 180.78 284.424C180.604 284.392 180.388 284.376 180.132 284.376C179.668 284.376 179.18 284.56 178.668 284.928C178.156 285.28 177.716 285.904 177.348 286.8V294H174.588ZM186.688 294.288C185.872 294.288 185.064 294.136 184.264 293.832C183.48 293.512 182.8 293.12 182.224 292.656L183.52 290.88C184.048 291.296 184.568 291.624 185.08 291.864C185.608 292.088 186.176 292.2 186.784 292.2C187.424 292.2 187.896 292.072 188.2 291.816C188.504 291.544 188.656 291.2 188.656 290.784C188.656 290.544 188.584 290.336 188.44 290.16C188.296 289.968 188.104 289.8 187.864 289.656C187.624 289.512 187.352 289.384 187.048 289.272C186.744 289.144 186.44 289.016 186.136 288.888C185.752 288.744 185.36 288.576 184.96 288.384C184.56 288.192 184.2 287.96 183.88 287.688C183.576 287.416 183.32 287.104 183.112 286.752C182.92 286.384 182.824 285.952 182.824 285.456C182.824 284.416 183.208 283.568 183.976 282.912C184.744 282.256 185.792 281.928 187.12 281.928C187.936 281.928 188.672 282.072 189.328 282.36C189.984 282.648 190.552 282.976 191.032 283.344L189.76 285.024C189.344 284.72 188.92 284.48 188.488 284.304C188.072 284.112 187.632 284.016 187.168 284.016C186.576 284.016 186.136 284.144 185.848 284.4C185.576 284.64 185.44 284.944 185.44 285.312C185.44 285.552 185.504 285.76 185.632 285.936C185.776 286.096 185.96 286.24 186.184 286.368C186.408 286.496 186.664 286.616 186.952 286.728C187.256 286.84 187.568 286.952 187.888 287.064C188.288 287.208 188.688 287.376 189.088 287.568C189.488 287.744 189.848 287.968 190.168 288.24C190.504 288.512 190.768 288.848 190.96 289.248C191.168 289.632 191.272 290.096 191.272 290.64C191.272 291.152 191.168 291.632 190.96 292.08C190.768 292.512 190.48 292.896 190.096 293.232C189.712 293.552 189.232 293.808 188.656 294C188.08 294.192 187.424 294.288 186.688 294.288ZM203.365 294.288C202.309 294.288 201.285 294.088 200.293 293.688C199.317 293.288 198.453 292.72 197.701 291.984L199.333 290.088C199.893 290.616 200.533 291.048 201.253 291.384C201.973 291.704 202.693 291.864 203.413 291.864C204.309 291.864 204.989 291.68 205.453 291.312C205.917 290.944 206.149 290.456 206.149 289.848C206.149 289.528 206.085 289.256 205.957 289.032C205.845 288.808 205.677 288.616 205.453 288.456C205.245 288.28 204.989 288.12 204.685 287.976C204.397 287.832 204.077 287.688 203.725 287.544L201.565 286.608C201.181 286.448 200.797 286.248 200.413 286.008C200.045 285.768 199.709 285.48 199.405 285.144C199.101 284.808 198.853 284.416 198.661 283.968C198.485 283.52 198.397 283.008 198.397 282.432C198.397 281.808 198.525 281.232 198.781 280.704C199.053 280.16 199.421 279.688 199.885 279.288C200.349 278.888 200.901 278.576 201.541 278.352C202.197 278.128 202.909 278.016 203.677 278.016C204.589 278.016 205.469 278.2 206.317 278.568C207.165 278.92 207.893 279.4 208.501 280.008L207.085 281.784C206.573 281.368 206.045 281.04 205.501 280.8C204.957 280.56 204.349 280.44 203.677 280.44C202.925 280.44 202.325 280.608 201.877 280.944C201.429 281.264 201.205 281.712 201.205 282.288C201.205 282.592 201.269 282.856 201.397 283.08C201.541 283.288 201.725 283.48 201.949 283.656C202.189 283.816 202.461 283.968 202.765 284.112C203.069 284.24 203.381 284.368 203.701 284.496L205.837 285.384C206.301 285.576 206.725 285.8 207.109 286.056C207.493 286.312 207.821 286.608 208.093 286.944C208.381 287.28 208.605 287.672 208.765 288.12C208.925 288.552 209.005 289.056 209.005 289.632C209.005 290.272 208.877 290.872 208.621 291.432C208.365 291.992 207.989 292.488 207.493 292.92C207.013 293.336 206.421 293.672 205.717 293.928C205.029 294.168 204.245 294.288 203.365 294.288ZM216.659 294.288C215.843 294.288 215.083 294.152 214.379 293.88C213.675 293.592 213.059 293.184 212.531 292.656C212.003 292.128 211.587 291.488 211.283 290.736C210.995 289.968 210.851 289.096 210.851 288.12C210.851 287.16 211.003 286.296 211.307 285.528C211.611 284.76 212.011 284.112 212.507 283.584C213.019 283.056 213.603 282.648 214.259 282.36C214.915 282.072 215.587 281.928 216.275 281.928C217.075 281.928 217.779 282.064 218.387 282.336C218.995 282.608 219.499 282.992 219.899 283.488C220.315 283.984 220.627 284.576 220.835 285.264C221.043 285.952 221.147 286.704 221.147 287.52C221.147 287.792 221.131 288.048 221.099 288.288C221.083 288.528 221.059 288.72 221.027 288.864H213.539C213.667 289.92 214.035 290.736 214.643 291.312C215.267 291.872 216.059 292.152 217.019 292.152C217.531 292.152 218.003 292.08 218.435 291.936C218.883 291.776 219.323 291.56 219.755 291.288L220.691 293.016C220.131 293.384 219.507 293.688 218.819 293.928C218.131 294.168 217.411 294.288 216.659 294.288ZM213.515 286.992H218.747C218.747 286.08 218.547 285.368 218.147 284.856C217.763 284.328 217.163 284.064 216.347 284.064C215.643 284.064 215.027 284.312 214.499 284.808C213.971 285.304 213.643 286.032 213.515 286.992ZM223.783 294V282.216H226.063L226.255 284.304H226.351C226.767 283.536 227.271 282.952 227.863 282.552C228.455 282.136 229.063 281.928 229.687 281.928C230.247 281.928 230.695 282.008 231.031 282.168L230.551 284.568C230.343 284.504 230.151 284.456 229.975 284.424C229.799 284.392 229.583 284.376 229.327 284.376C228.863 284.376 228.375 284.56 227.863 284.928C227.351 285.28 226.911 285.904 226.543 286.8V294H223.783ZM235.751 294L231.647 282.216H234.455L236.327 288.336C236.487 288.912 236.647 289.496 236.807 290.088C236.983 290.68 237.151 291.28 237.311 291.888H237.407C237.583 291.28 237.751 290.68 237.911 290.088C238.071 289.496 238.239 288.912 238.415 288.336L240.287 282.216H242.951L238.943 294H235.751ZM244.994 294V282.216H247.754V294H244.994ZM246.386 280.152C245.89 280.152 245.482 280.008 245.162 279.72C244.842 279.432 244.682 279.056 244.682 278.592C244.682 278.128 244.842 277.752 245.162 277.464C245.482 277.16 245.89 277.008 246.386 277.008C246.882 277.008 247.29 277.16 247.61 277.464C247.93 277.752 248.09 278.128 248.09 278.592C248.09 279.056 247.93 279.432 247.61 279.72C247.29 280.008 246.882 280.152 246.386 280.152ZM256.195 294.288C255.395 294.288 254.643 294.152 253.939 293.88C253.251 293.608 252.651 293.208 252.139 292.68C251.627 292.152 251.227 291.504 250.939 290.736C250.651 289.968 250.507 289.096 250.507 288.12C250.507 287.144 250.667 286.272 250.987 285.504C251.307 284.736 251.739 284.088 252.283 283.56C252.827 283.032 253.451 282.632 254.155 282.36C254.875 282.072 255.627 281.928 256.411 281.928C257.179 281.928 257.835 282.056 258.379 282.312C258.939 282.568 259.435 282.88 259.867 283.248L258.523 285.048C258.203 284.776 257.883 284.568 257.563 284.424C257.259 284.264 256.923 284.184 256.555 284.184C255.595 284.184 254.819 284.544 254.227 285.264C253.635 285.968 253.339 286.92 253.339 288.12C253.339 289.304 253.627 290.256 254.203 290.976C254.795 291.68 255.555 292.032 256.483 292.032C256.947 292.032 257.379 291.936 257.779 291.744C258.195 291.536 258.571 291.296 258.907 291.024L260.035 292.848C259.475 293.328 258.859 293.688 258.187 293.928C257.531 294.168 256.867 294.288 256.195 294.288ZM266.815 294.288C265.999 294.288 265.239 294.152 264.535 293.88C263.831 293.592 263.215 293.184 262.687 292.656C262.159 292.128 261.743 291.488 261.439 290.736C261.151 289.968 261.007 289.096 261.007 288.12C261.007 287.16 261.159 286.296 261.463 285.528C261.767 284.76 262.167 284.112 262.663 283.584C263.175 283.056 263.759 282.648 264.415 282.36C265.071 282.072 265.743 281.928 266.431 281.928C267.231 281.928 267.935 282.064 268.543 282.336C269.151 282.608 269.655 282.992 270.055 283.488C270.471 283.984 270.783 284.576 270.991 285.264C271.199 285.952 271.303 286.704 271.303 287.52C271.303 287.792 271.287 288.048 271.255 288.288C271.239 288.528 271.215 288.72 271.183 288.864H263.695C263.823 289.92 264.191 290.736 264.799 291.312C265.423 291.872 266.215 292.152 267.175 292.152C267.687 292.152 268.159 292.08 268.591 291.936C269.039 291.776 269.479 291.56 269.911 291.288L270.847 293.016C270.287 293.384 269.663 293.688 268.975 293.928C268.287 294.168 267.567 294.288 266.815 294.288ZM263.671 286.992H268.903C268.903 286.08 268.703 285.368 268.303 284.856C267.919 284.328 267.319 284.064 266.503 284.064C265.799 284.064 265.183 284.312 264.655 284.808C264.127 285.304 263.799 286.032 263.671 286.992Z" fill="#002348"/>
<mask id="mask0_1_268" style="mask-type:alpha" maskUnits="userSpaceOnUse" x="100" y="0" width="232" height="232">
<rect x="100" width="232" height="232" rx="116" fill="white"/>
</mask>
<g mask="url(#mask0_1_268)">
<path d="M122 130.615V164.67C122 166.845 123.764 168.609 125.939 168.609H177.575L199.442 161.1L221.31 168.609H306.061C308.237 168.609 308.164 166.845 308.164 164.67V133.25C308.164 131.54 309.444 129.877 308.416 128.511L269.991 77.4825C268.502 75.5059 266.171 74.3434 263.697 74.3434L192.515 71.7731L135.573 74.3434L122 130.615Z" fill="#B8C9EA"/>
<path d="M135.572 74.3431V70.0565C135.572 64.3949 140.162 59.805 145.824 59.805H236.113C246.986 59.805 257.192 65.047 263.525 73.8848L263.854 74.3431H135.572Z" fill="#D6E0F4"/>
<path d="M263.525 73.8848C257.192 65.047 246.986 59.805 236.113 59.805H220.915C231.788 59.805 241.994 65.047 248.327 73.8848L248.655 74.3431H263.854L263.525 73.8848Z" fill="#B8C9EA"/>
<path d="M225.315 45.1531C229.361 45.1531 232.641 48.4332 232.641 52.4792V59.8054H217.989V52.4792C217.989 48.4332 221.269 45.1531 225.315 45.1531Z" fill="#FF9F6B"/>
<path d="M123.382 124.885H202.772L181.242 87.2001H132.471L123.382 124.885Z" fill="#FF9F6B"/>
<path d="M277.308 87.2001H237.078C234.902 87.2001 233.138 88.9637 233.138 91.1393V108.771C233.138 110.946 234.902 112.71 237.078 112.71H296.517L277.308 87.2001Z" fill="#007DF2"/>
<path d="M177.575 91.1393V168.609H221.309V91.1393C221.309 88.9637 219.546 87.2001 217.37 87.2001H181.514C179.339 87.2001 177.575 88.9641 177.575 91.1393V91.1393Z" fill="#D6E0F4"/>
<path d="M188.605 123.966V102.169C188.605 99.9937 190.368 98.2301 192.544 98.2301H206.34C208.516 98.2301 210.279 99.9937 210.279 102.169V123.966C210.279 126.141 208.516 127.905 206.34 127.905H192.544C190.368 127.905 188.605 126.141 188.605 123.966Z" fill="#007DF2"/>
<circle cx="149.529" cy="162.229" r="17.7168" transform="rotate(-37.9705 149.529 162.229)" fill="#007DF2"/>
<circle cx="149.529" cy="162.229" r="6.35851" transform="rotate(-37.9705 149.529 162.229)" fill="#D5D9F2"/>
<circle cx="259.375" cy="162.274" r="17.7168" transform="rotate(-37.9705 259.375 162.274)" fill="#007DF2"/>
<circle cx="259.375" cy="162.274" r="6.35851" transform="rotate(-37.9705 259.375 162.274)" fill="#D5D9F2"/>
<path d="M298.487 155.348H310V136.336H298.487C297.399 136.336 296.517 137.218 296.517 138.306V153.379C296.517 154.467 297.399 155.348 298.487 155.348V155.348Z" fill="#FF9F6B"/>
<path d="M159.52 103.205H155.345V99.0309C155.345 97.4641 154.075 96.194 152.509 96.194C150.941 96.194 149.672 97.4641 149.672 99.0309V103.205H145.497C143.93 103.205 142.66 104.476 142.66 106.042C142.66 107.609 143.93 108.879 145.497 108.879H149.671V113.054C149.671 114.621 150.941 115.891 152.508 115.891C154.075 115.891 155.345 114.621 155.345 113.054V108.88H159.519C161.086 108.88 162.356 107.61 162.356 106.043C162.356 104.476 161.087 103.205 159.52 103.205V103.205Z" fill="#D6E0F4"/>
<path d="M243.566 125.923H239.422C237.855 125.923 236.585 124.653 236.585 123.086C236.585 121.519 237.855 120.249 239.422 120.249H243.566C245.133 120.249 246.403 121.519 246.403 123.086C246.403 124.653 245.133 125.923 243.566 125.923Z" fill="#8FACE0"/>
</g>
<defs>
<filter id="filter0_d_1_268" x="0" y="45" width="432" height="392" filterUnits="userSpaceOnUse" color-interpolation-filters="sRGB">
<feFlood flood-opacity="0" result="BackgroundImageFix"/>
<feColorMatrix in="SourceAlpha" type="matrix" values="0 0 0 0 0 0 0 0 0 0 0 0 0 0 0 0 0 0 127 0" result="hardAlpha"/>
<feMorphology radius="25" operator="dilate" in="SourceAlpha" result="effect1_dropShadow_1_268"/>
<feOffset dy="10"/>
<feGaussianBlur stdDeviation="25"/>
<feColorMatrix type="matrix" values="0 0 0 0 0 0 0 0 0 0.231373 0 0 0 0 0.47451 0 0 0 0.0725798 0"/>
<feBlend mode="normal" in2="BackgroundImageFix" result="effect1_dropShadow_1_268"/>
<feBlend mode="normal" in="SourceGraphic" in2="effect1_dropShadow_1_268" result="shape"/>
</filter>
</defs>
</svg>
