<svg width="381" height="391" viewBox="0 0 381 391" fill="none" xmlns="http://www.w3.org/2000/svg">
<g filter="url(#filter0_d_1_246)">
<rect x="75" y="111" width="282" height="242" rx="20" fill="white"/>
</g>
<path d="M102.992 295V279.304H112.448V281.656H105.776V285.664H111.416V288.016H105.776V292.648H112.688V295H102.992ZM115.666 295V283.216H117.946L118.138 284.824H118.234C118.73 284.296 119.266 283.848 119.842 283.48C120.434 283.112 121.098 282.928 121.834 282.928C122.698 282.928 123.386 283.112 123.898 283.48C124.426 283.848 124.826 284.368 125.098 285.04C125.658 284.432 126.242 283.928 126.85 283.528C127.458 283.128 128.138 282.928 128.89 282.928C130.138 282.928 131.058 283.336 131.65 284.152C132.242 284.952 132.538 286.104 132.538 287.608V295H129.754V287.968C129.754 286.992 129.602 286.304 129.298 285.904C129.01 285.504 128.562 285.304 127.954 285.304C127.218 285.304 126.394 285.792 125.482 286.768V295H122.722V287.968C122.722 286.992 122.57 286.304 122.266 285.904C121.978 285.504 121.522 285.304 120.898 285.304C120.162 285.304 119.338 285.792 118.426 286.768V295H115.666ZM140.933 295.288C140.117 295.288 139.357 295.152 138.653 294.88C137.949 294.592 137.333 294.184 136.805 293.656C136.277 293.128 135.861 292.488 135.557 291.736C135.269 290.968 135.125 290.096 135.125 289.12C135.125 288.16 135.277 287.296 135.581 286.528C135.885 285.76 136.285 285.112 136.781 284.584C137.293 284.056 137.877 283.648 138.533 283.36C139.189 283.072 139.861 282.928 140.549 282.928C141.349 282.928 142.053 283.064 142.661 283.336C143.269 283.608 143.773 283.992 144.173 284.488C144.589 284.984 144.901 285.576 145.109 286.264C145.317 286.952 145.421 287.704 145.421 288.52C145.421 288.792 145.405 289.048 145.373 289.288C145.357 289.528 145.333 289.72 145.301 289.864H137.813C137.941 290.92 138.309 291.736 138.917 292.312C139.541 292.872 140.333 293.152 141.293 293.152C141.805 293.152 142.277 293.08 142.709 292.936C143.157 292.776 143.597 292.56 144.029 292.288L144.965 294.016C144.405 294.384 143.781 294.688 143.093 294.928C142.405 295.168 141.685 295.288 140.933 295.288ZM137.789 287.992H143.021C143.021 287.08 142.821 286.368 142.421 285.856C142.037 285.328 141.437 285.064 140.621 285.064C139.917 285.064 139.301 285.312 138.773 285.808C138.245 286.304 137.917 287.032 137.789 287.992ZM148.057 295V283.216H150.337L150.529 285.304H150.625C151.041 284.536 151.545 283.952 152.137 283.552C152.729 283.136 153.337 282.928 153.961 282.928C154.521 282.928 154.969 283.008 155.305 283.168L154.825 285.568C154.617 285.504 154.425 285.456 154.249 285.424C154.073 285.392 153.857 285.376 153.601 285.376C153.137 285.376 152.649 285.56 152.137 285.928C151.625 286.28 151.185 286.904 150.817 287.8V295H148.057ZM160.879 300.208C160.175 300.208 159.519 300.144 158.911 300.016C158.319 299.888 157.807 299.696 157.375 299.44C156.943 299.184 156.599 298.864 156.343 298.48C156.103 298.096 155.983 297.648 155.983 297.136C155.983 296.64 156.127 296.176 156.415 295.744C156.703 295.328 157.119 294.952 157.663 294.616V294.52C157.359 294.328 157.103 294.072 156.895 293.752C156.703 293.432 156.607 293.032 156.607 292.552C156.607 292.088 156.735 291.672 156.991 291.304C157.263 290.92 157.567 290.608 157.903 290.368V290.272C157.503 289.968 157.143 289.552 156.823 289.024C156.519 288.48 156.367 287.856 156.367 287.152C156.367 286.48 156.495 285.88 156.751 285.352C157.007 284.824 157.343 284.384 157.759 284.032C158.191 283.664 158.687 283.392 159.247 283.216C159.807 283.024 160.399 282.928 161.023 282.928C161.343 282.928 161.647 282.96 161.935 283.024C162.239 283.072 162.511 283.136 162.751 283.216H166.975V285.256H164.815C165.007 285.48 165.167 285.768 165.295 286.12C165.423 286.456 165.487 286.832 165.487 287.248C165.487 287.904 165.367 288.48 165.127 288.976C164.903 289.472 164.591 289.888 164.191 290.224C163.791 290.56 163.319 290.816 162.775 290.992C162.231 291.168 161.647 291.256 161.023 291.256C160.767 291.256 160.503 291.232 160.231 291.184C159.959 291.136 159.687 291.056 159.415 290.944C159.239 291.104 159.095 291.264 158.983 291.424C158.887 291.584 158.839 291.8 158.839 292.072C158.839 292.408 158.975 292.672 159.247 292.864C159.535 293.056 160.039 293.152 160.759 293.152H162.847C164.271 293.152 165.343 293.384 166.063 293.848C166.799 294.296 167.167 295.032 167.167 296.056C167.167 296.632 167.015 297.176 166.711 297.688C166.423 298.2 166.007 298.64 165.463 299.008C164.919 299.376 164.255 299.664 163.471 299.872C162.703 300.096 161.839 300.208 160.879 300.208ZM161.023 289.528C161.583 289.528 162.063 289.328 162.463 288.928C162.863 288.512 163.063 287.92 163.063 287.152C163.063 286.416 162.863 285.848 162.463 285.448C162.079 285.032 161.599 284.824 161.023 284.824C160.447 284.824 159.959 285.024 159.559 285.424C159.159 285.824 158.959 286.4 158.959 287.152C158.959 287.92 159.159 288.512 159.559 288.928C159.959 289.328 160.447 289.528 161.023 289.528ZM161.311 298.408C162.271 298.408 163.039 298.216 163.615 297.832C164.207 297.464 164.503 297.024 164.503 296.512C164.503 296.048 164.319 295.736 163.951 295.576C163.599 295.416 163.087 295.336 162.415 295.336H160.807C160.167 295.336 159.631 295.28 159.199 295.168C158.591 295.632 158.287 296.152 158.287 296.728C158.287 297.256 158.551 297.664 159.079 297.952C159.623 298.256 160.367 298.408 161.311 298.408ZM173.909 295.288C173.093 295.288 172.333 295.152 171.629 294.88C170.925 294.592 170.309 294.184 169.781 293.656C169.253 293.128 168.837 292.488 168.533 291.736C168.245 290.968 168.101 290.096 168.101 289.12C168.101 288.16 168.253 287.296 168.557 286.528C168.861 285.76 169.261 285.112 169.757 284.584C170.269 284.056 170.853 283.648 171.509 283.36C172.165 283.072 172.837 282.928 173.525 282.928C174.325 282.928 175.029 283.064 175.637 283.336C176.245 283.608 176.749 283.992 177.149 284.488C177.565 284.984 177.877 285.576 178.085 286.264C178.293 286.952 178.397 287.704 178.397 288.52C178.397 288.792 178.381 289.048 178.349 289.288C178.333 289.528 178.309 289.72 178.277 289.864H170.789C170.917 290.92 171.285 291.736 171.893 292.312C172.517 292.872 173.309 293.152 174.269 293.152C174.781 293.152 175.253 293.08 175.685 292.936C176.133 292.776 176.573 292.56 177.005 292.288L177.941 294.016C177.381 294.384 176.757 294.688 176.069 294.928C175.381 295.168 174.661 295.288 173.909 295.288ZM170.765 287.992H175.997C175.997 287.08 175.797 286.368 175.397 285.856C175.013 285.328 174.413 285.064 173.597 285.064C172.893 285.064 172.277 285.312 171.749 285.808C171.221 286.304 170.893 287.032 170.765 287.992ZM181.033 295V283.216H183.313L183.505 284.8H183.601C184.129 284.288 184.697 283.848 185.305 283.48C185.929 283.112 186.649 282.928 187.465 282.928C188.729 282.928 189.649 283.336 190.225 284.152C190.801 284.952 191.089 286.104 191.089 287.608V295H188.329V287.968C188.329 286.992 188.185 286.304 187.897 285.904C187.609 285.504 187.137 285.304 186.481 285.304C185.969 285.304 185.513 285.432 185.113 285.688C184.729 285.928 184.289 286.288 183.793 286.768V295H181.033ZM199.383 295.288C198.583 295.288 197.831 295.152 197.127 294.88C196.439 294.608 195.839 294.208 195.327 293.68C194.815 293.152 194.415 292.504 194.127 291.736C193.839 290.968 193.695 290.096 193.695 289.12C193.695 288.144 193.855 287.272 194.175 286.504C194.495 285.736 194.927 285.088 195.471 284.56C196.015 284.032 196.639 283.632 197.343 283.36C198.063 283.072 198.815 282.928 199.599 282.928C200.367 282.928 201.023 283.056 201.567 283.312C202.127 283.568 202.623 283.88 203.055 284.248L201.711 286.048C201.391 285.776 201.071 285.568 200.751 285.424C200.447 285.264 200.111 285.184 199.743 285.184C198.783 285.184 198.007 285.544 197.415 286.264C196.823 286.968 196.527 287.92 196.527 289.12C196.527 290.304 196.815 291.256 197.391 291.976C197.983 292.68 198.743 293.032 199.671 293.032C200.135 293.032 200.567 292.936 200.967 292.744C201.383 292.536 201.759 292.296 202.095 292.024L203.223 293.848C202.663 294.328 202.047 294.688 201.375 294.928C200.719 295.168 200.055 295.288 199.383 295.288ZM206.435 299.848C206.115 299.848 205.835 299.824 205.595 299.776C205.355 299.744 205.123 299.688 204.899 299.608L205.403 297.448C205.515 297.48 205.643 297.512 205.787 297.544C205.947 297.592 206.099 297.616 206.243 297.616C206.867 297.616 207.363 297.424 207.731 297.04C208.115 296.672 208.403 296.192 208.595 295.6L208.811 294.856L204.179 283.216H206.987L209.027 289C209.203 289.512 209.371 290.056 209.531 290.632C209.707 291.192 209.883 291.752 210.059 292.312H210.155C210.299 291.768 210.443 291.216 210.587 290.656C210.747 290.08 210.899 289.528 211.043 289L212.819 283.216H215.483L211.211 295.528C210.971 296.2 210.707 296.8 210.419 297.328C210.131 297.856 209.795 298.304 209.411 298.672C209.043 299.056 208.611 299.344 208.115 299.536C207.635 299.744 207.075 299.848 206.435 299.848ZM228.834 295.288C227.842 295.288 226.914 295.112 226.05 294.76C225.186 294.408 224.434 293.888 223.794 293.2C223.17 292.512 222.674 291.664 222.306 290.656C221.938 289.648 221.754 288.496 221.754 287.2C221.754 285.92 221.938 284.776 222.306 283.768C222.69 282.744 223.202 281.88 223.842 281.176C224.498 280.472 225.258 279.936 226.122 279.568C227.002 279.2 227.938 279.016 228.93 279.016C229.922 279.016 230.802 279.216 231.57 279.616C232.338 280.016 232.97 280.48 233.466 281.008L231.978 282.808C231.562 282.392 231.114 282.064 230.634 281.824C230.154 281.568 229.61 281.44 229.002 281.44C228.362 281.44 227.77 281.576 227.226 281.848C226.698 282.104 226.234 282.48 225.834 282.976C225.45 283.456 225.146 284.048 224.922 284.752C224.714 285.456 224.61 286.248 224.61 287.128C224.61 288.92 224.994 290.328 225.762 291.352C226.546 292.36 227.602 292.864 228.93 292.864C229.634 292.864 230.258 292.72 230.802 292.432C231.346 292.128 231.842 291.736 232.29 291.256L233.778 293.008C233.138 293.744 232.402 294.312 231.57 294.712C230.754 295.096 229.842 295.288 228.834 295.288ZM239.014 295.288C237.974 295.288 237.134 294.976 236.494 294.352C235.854 293.712 235.534 292.872 235.534 291.832C235.534 291.208 235.662 290.656 235.918 290.176C236.19 289.68 236.606 289.256 237.166 288.904C237.742 288.552 238.462 288.256 239.326 288.016C240.206 287.776 241.254 287.592 242.47 287.464C242.454 287.16 242.406 286.872 242.326 286.6C242.262 286.312 242.142 286.064 241.966 285.856C241.806 285.632 241.59 285.464 241.318 285.352C241.046 285.224 240.71 285.16 240.31 285.16C239.734 285.16 239.166 285.272 238.606 285.496C238.062 285.72 237.526 285.992 236.998 286.312L235.99 284.464C236.646 284.048 237.382 283.688 238.198 283.384C239.014 283.08 239.894 282.928 240.838 282.928C242.31 282.928 243.406 283.368 244.126 284.248C244.862 285.112 245.23 286.368 245.23 288.016V295H242.95L242.758 293.704H242.662C242.134 294.152 241.566 294.528 240.958 294.832C240.366 295.136 239.718 295.288 239.014 295.288ZM239.902 293.128C240.382 293.128 240.814 293.016 241.198 292.792C241.598 292.568 242.022 292.248 242.47 291.832V289.192C241.67 289.288 240.998 289.416 240.454 289.576C239.91 289.736 239.47 289.92 239.134 290.128C238.798 290.32 238.558 290.544 238.414 290.8C238.27 291.056 238.198 291.328 238.198 291.616C238.198 292.144 238.358 292.528 238.678 292.768C238.998 293.008 239.406 293.128 239.902 293.128ZM248.533 295V283.216H250.813L251.005 285.304H251.101C251.517 284.536 252.021 283.952 252.613 283.552C253.205 283.136 253.813 282.928 254.437 282.928C254.997 282.928 255.445 283.008 255.781 283.168L255.301 285.568C255.093 285.504 254.901 285.456 254.725 285.424C254.549 285.392 254.333 285.376 254.077 285.376C253.613 285.376 253.125 285.56 252.613 285.928C252.101 286.28 251.661 286.904 251.293 287.8V295H248.533ZM262.292 295.288C261.476 295.288 260.716 295.152 260.012 294.88C259.308 294.592 258.692 294.184 258.164 293.656C257.636 293.128 257.22 292.488 256.916 291.736C256.628 290.968 256.484 290.096 256.484 289.12C256.484 288.16 256.636 287.296 256.94 286.528C257.244 285.76 257.644 285.112 258.14 284.584C258.652 284.056 259.236 283.648 259.892 283.36C260.548 283.072 261.22 282.928 261.908 282.928C262.708 282.928 263.412 283.064 264.02 283.336C264.628 283.608 265.132 283.992 265.532 284.488C265.948 284.984 266.26 285.576 266.468 286.264C266.676 286.952 266.78 287.704 266.78 288.52C266.78 288.792 266.764 289.048 266.732 289.288C266.716 289.528 266.692 289.72 266.66 289.864H259.172C259.3 290.92 259.668 291.736 260.276 292.312C260.9 292.872 261.692 293.152 262.652 293.152C263.164 293.152 263.636 293.08 264.068 292.936C264.516 292.776 264.956 292.56 265.388 292.288L266.324 294.016C265.764 294.384 265.14 294.688 264.452 294.928C263.764 295.168 263.044 295.288 262.292 295.288ZM259.148 287.992H264.38C264.38 287.08 264.18 286.368 263.78 285.856C263.396 285.328 262.796 285.064 261.98 285.064C261.276 285.064 260.66 285.312 260.132 285.808C259.604 286.304 259.276 287.032 259.148 287.992Z" fill="#002348"/>
<mask id="mask0_1_246" style="mask-type:alpha" maskUnits="userSpaceOnUse" x="100" y="0" width="232" height="232">
<rect x="100" width="232" height="232" rx="116" fill="white"/>
</mask>
<g mask="url(#mask0_1_246)">
<path fill-rule="evenodd" clip-rule="evenodd" d="M261.63 217.368C261.63 217.368 272.631 298.612 276.532 307.363C280.432 316.115 318.184 394.771 318.184 394.771L290.9 414.34C290.9 414.34 230.157 322.762 227.404 317.856C225.625 314.716 220.885 296.018 220.885 296.018L174.105 423.398L143.105 409.232L175.651 220.642L261.63 217.368Z" fill="#AADAF1"/>
<path fill-rule="evenodd" clip-rule="evenodd" d="M228.679 218.631L204.32 219.557L204.498 225.432L228.679 218.631ZM204.934 240.886L207.724 331.845L220.878 296.122L204.934 240.886Z" fill="#73A9C3"/>
<path d="M220.909 296.122L202.64 232.442" stroke="#0097F7" stroke-width="1.04254" stroke-linecap="round" stroke-linejoin="round"/>
<path fill-rule="evenodd" clip-rule="evenodd" d="M282.885 159.022C282.805 154.294 283.823 145.868 281.714 140.802C279.604 135.737 265.677 137.92 265.677 137.92C265.677 137.92 282.959 163.726 282.885 159.022Z" fill="#F77F89"/>
<path fill-rule="evenodd" clip-rule="evenodd" d="M225.46 77.5506C257.116 77.5506 282.946 93.5873 283.198 117.891C283.351 133.143 286.16 144.114 286.16 144.114L258.091 151.093C258.091 151.093 267.842 218.042 264.42 220.857C254.24 229.246 182.82 232.055 173.958 222.924C173.179 211.628 180.048 181.529 180.048 181.529C180.048 181.529 158.252 130.15 170.064 105.92C181.256 82.9534 210.68 78.8261 223.724 78.3785C224.441 78.3539 224.846 77.5506 225.46 77.5506Z" fill="#FF9F6B"/>
<path fill-rule="evenodd" clip-rule="evenodd" d="M244.219 35.7569C244.403 24.9083 233.321 10 217.364 10C204.86 10 192.086 15.9486 191.761 25.6259C191.111 21.6274 190.491 19.156 190.945 16.9482C188.247 16.8133 182.82 23.7738 182.82 33.0708C182.82 36.6645 185.622 50.2421 193.595 50.0765C201.567 49.9109 231.991 60.8024 231.991 60.8024C231.991 60.8024 233.99 63.7277 236.688 63.5069C239.387 63.2861 244.495 58.2267 244.538 55.4364C244.581 52.6461 242.054 47.6296 242.085 46.0781C242.116 44.5265 244.029 46.5871 244.219 35.7569Z" fill="#6A3416"/>
<path d="M206.062 109.127L200.439 129.586" stroke="black" stroke-width="2.09122" stroke-linecap="round" stroke-linejoin="round"/>
<path fill-rule="evenodd" clip-rule="evenodd" d="M190.166 49.684C190.164 40.0838 195.945 31.4275 204.814 27.7525C213.683 24.0775 223.893 26.1076 230.681 32.896C237.47 39.6845 239.5 49.894 235.825 58.763C232.15 67.632 223.494 73.4135 213.893 73.4111C200.789 73.4111 190.166 62.7881 190.166 49.684V49.684Z" fill="#F77F89"/>
<path fill-rule="evenodd" clip-rule="evenodd" d="M189.026 40.663C189.026 40.663 192.215 40.0497 196.906 33.1076C202.757 34.2115 212.385 34.1624 220.59 31.6849C220.694 36.6339 224.325 44.735 229.323 43.8397C234.321 42.9443 236.369 30.8999 236.369 30.8999L224.589 18.5856L206.773 18.7022L194.232 27.5392L189.026 40.663Z" fill="#6A3416"/>
<path fill-rule="evenodd" clip-rule="evenodd" d="M196.109 46.863C195.888 44.9681 196.483 43.3491 197.434 43.2387C198.384 43.1283 199.341 44.5694 199.562 46.4583C199.782 48.3471 199.187 49.9723 198.231 50.0826C197.274 50.193 196.348 48.7519 196.109 46.863Z" fill="#90415B"/>
<path fill-rule="evenodd" clip-rule="evenodd" d="M237.853 54.6208C237.24 58.3923 236.014 76.3302 237.958 80.1446C233.622 84.5111 220.909 86.3938 214.249 84.4988C214.77 79.3229 212.624 74.2635 211.477 72.1968C210.33 70.1301 238.448 50.8431 237.853 54.6208Z" fill="#F77F89"/>
<path fill-rule="evenodd" clip-rule="evenodd" d="M211.956 43.9501C211.735 42.0612 212.33 40.4422 213.28 40.3257C214.231 40.2092 215.187 41.6565 215.402 43.5514C215.617 45.4464 215.034 47.0654 214.077 47.1758C213.121 47.2862 212.176 45.845 211.956 43.9501Z" fill="#90415B"/>
<path d="M204.057 47.4947C204.247 49.727 202.456 58.1654 202.076 59.4717C201.696 60.7779 203.738 61.2624 203.738 61.2624" stroke="#90415B" stroke-width="1.04254" stroke-linecap="round" stroke-linejoin="round"/>
<path fill-rule="evenodd" clip-rule="evenodd" d="M191.356 57.1229C191.479 59.4962 197.084 71.7369 200.389 73.6196C203.695 75.5023 228.599 75.257 234.321 62.9304C229.624 62.2007 226.441 58.2145 222.724 49.684C214.421 50.9106 205.007 49.684 203.493 49.7638C201.831 49.8619 197.832 55.3812 191.356 57.1229Z" fill="white"/>
<path fill-rule="evenodd" clip-rule="evenodd" d="M241.073 102.332C254.099 102.081 279.929 100.493 282.523 111.531C285.117 122.57 287.583 141.501 286.16 144.095C284.737 146.689 258.214 149.977 258.214 149.977C256.116 144.666 244.538 114.72 241.073 102.332Z" fill="#FF9F6B"/>
<path fill-rule="evenodd" clip-rule="evenodd" d="M268.872 175.513C261.697 176.678 219.351 147.174 214.102 147.75C208.852 148.327 195.379 147.812 195.379 147.812C195.379 147.812 187.713 118.43 204.069 117.345C205.081 117.278 211.072 122.607 211.072 122.607C211.072 122.607 212.734 122.079 213.893 123.03C216.009 124.759 222.89 132.578 226.33 133.817C232.12 135.908 279.101 144.794 281.352 148.535C283.603 152.276 286.086 172.722 268.872 175.513Z" fill="#F77F89"/>
<path fill-rule="evenodd" clip-rule="evenodd" d="M156.364 130.199H189.204C192.994 130.199 197.299 133.008 198.826 136.479L221.939 188.98C223.466 192.445 221.633 195.253 217.843 195.253H185.009C181.219 195.253 176.908 192.445 175.381 188.98L152.273 136.473C150.746 133.001 152.58 130.199 156.364 130.199Z" fill="#007EF3"/>
<path fill-rule="evenodd" clip-rule="evenodd" d="M155.56 172.857C153.996 168.822 152.88 163.247 155.076 159.678C157.271 156.109 165.722 145.119 169.224 144.917C172.725 144.715 181.716 154.459 182.679 157.618C183.641 160.776 183.292 167.638 181.783 170.594C180.275 173.55 174.222 179.29 171.174 179.407C168.126 179.523 156.486 175.323 155.56 172.857Z" fill="#F77F89"/>
<path fill-rule="evenodd" clip-rule="evenodd" d="M154.695 164.793C154.272 158.28 151.433 151.228 149.507 146.444C148.219 143.261 149.17 140.532 151.347 139.913C153.524 139.294 160.276 148.198 160.472 155.085C160.669 161.972 155.125 171.287 154.695 164.793Z" fill="#F77F89"/>
<path d="M154.291 161.475C155.852 158.027 157.935 154.839 160.466 152.025" stroke="#81666F" stroke-width="1.04254" stroke-linecap="round" stroke-linejoin="round"/>
<path d="M162.999 162.53C162.999 159.028 170.137 148.817 172.811 147.566" stroke="#905F6F" stroke-width="1.04254" stroke-linecap="round" stroke-linejoin="round"/>
<path d="M170.009 166.651C170.088 164.952 175.644 155.698 178.827 153.858" stroke="#8B5D6C" stroke-width="1.04254" stroke-linecap="round" stroke-linejoin="round"/>
<path d="M183.059 112.329C182.445 115.922 181.869 123.606 183.353 130.18" stroke="white" stroke-width="1.04254" stroke-linecap="round" stroke-linejoin="round"/>
<path d="M224.368 127.255L245.065 127.672" stroke="white" stroke-width="1.04254" stroke-linecap="round" stroke-linejoin="round"/>
<path fill-rule="evenodd" clip-rule="evenodd" d="M212.71 79.4333C212.409 82.4628 208.816 102.05 220.909 102.05C228.691 102.05 240.773 83.9469 238.859 78.5502" fill="#F77F89"/>
<path d="M212.71 79.4333C212.409 82.4628 208.816 102.05 220.909 102.05C228.691 102.05 240.773 83.9469 238.859 78.5502" stroke="white" stroke-width="1.04254" stroke-linecap="round" stroke-linejoin="round"/>
<path fill-rule="evenodd" clip-rule="evenodd" d="M226.33 47.0102C226.328 43.3535 228.529 40.0555 231.906 38.6545C235.284 37.2534 239.173 38.0253 241.759 40.6101C244.346 43.1948 245.12 47.0833 243.722 50.4619C242.323 53.8405 239.026 56.0435 235.37 56.0435C230.38 56.0435 226.334 52.0002 226.33 47.0102V47.0102Z" fill="#F77F89"/>
<path d="M222.816 49.8619C222.816 49.8619 228.526 39.4365 234.573 38.0076" stroke="white" stroke-width="1.04254" stroke-linecap="round" stroke-linejoin="round"/>
<path d="M234.284 63.004L238.712 55.3812" stroke="white" stroke-width="1.04254" stroke-linecap="round" stroke-linejoin="round"/>
<path d="M254.608 140.698C251.143 131.616 246.169 118.283 243.029 108.729" stroke="white" stroke-width="1.04254" stroke-linecap="round" stroke-linejoin="round"/>
<path d="M192.055 59.6311C193.674 64.0527 197.765 72.1232 200.396 73.6196C201.444 74.2328 204.688 74.6008 208.822 74.4475" stroke="#C9C9C9" stroke-width="2.09122" stroke-linecap="round" stroke-linejoin="round"/>
</g>
<defs>
<filter id="filter0_d_1_246" x="0" y="46" width="432" height="392" filterUnits="userSpaceOnUse" color-interpolation-filters="sRGB">
<feFlood flood-opacity="0" result="BackgroundImageFix"/>
<feColorMatrix in="SourceAlpha" type="matrix" values="0 0 0 0 0 0 0 0 0 0 0 0 0 0 0 0 0 0 127 0" result="hardAlpha"/>
<feMorphology radius="25" operator="dilate" in="SourceAlpha" result="effect1_dropShadow_1_246"/>
<feOffset dy="10"/>
<feGaussianBlur stdDeviation="25"/>
<feColorMatrix type="matrix" values="0 0 0 0 0 0 0 0 0 0.231373 0 0 0 0 0.47451 0 0 0 0.0725798 0"/>
<feBlend mode="normal" in2="BackgroundImageFix" result="effect1_dropShadow_1_246"/>
<feBlend mode="normal" in="SourceGraphic" in2="effect1_dropShadow_1_246" result="shape"/>
</filter>
</defs>
</svg>
