<svg width="432" height="395" viewBox="0 0 432 395" fill="none" xmlns="http://www.w3.org/2000/svg">
<g filter="url(#filter0_d_1_198)">
<rect x="75" y="116" width="282" height="236" rx="20" fill="white"/>
</g>
<path d="M109.088 292.008C109.712 292.008 110.272 291.872 110.768 291.6C111.264 291.328 111.688 290.936 112.04 290.424C112.392 289.912 112.664 289.288 112.856 288.552C113.048 287.816 113.144 286.992 113.144 286.08C113.144 284.32 112.776 282.944 112.04 281.952C111.32 280.944 110.336 280.44 109.088 280.44C107.84 280.44 106.848 280.944 106.112 281.952C105.392 282.944 105.032 284.32 105.032 286.08C105.032 286.992 105.128 287.816 105.32 288.552C105.512 289.288 105.784 289.912 106.136 290.424C106.488 290.936 106.912 291.328 107.408 291.6C107.904 291.872 108.464 292.008 109.088 292.008ZM114.08 298.176C112.512 298.176 111.2 297.8 110.144 297.048C109.088 296.296 108.304 295.336 107.792 294.168C106.944 294.024 106.176 293.736 105.488 293.304C104.8 292.856 104.208 292.288 103.712 291.6C103.216 290.912 102.832 290.104 102.56 289.176C102.304 288.248 102.176 287.216 102.176 286.08C102.176 284.816 102.344 283.688 102.68 282.696C103.016 281.688 103.488 280.84 104.096 280.152C104.704 279.464 105.432 278.936 106.28 278.568C107.128 278.2 108.064 278.016 109.088 278.016C110.112 278.016 111.048 278.2 111.896 278.568C112.744 278.936 113.472 279.464 114.08 280.152C114.704 280.84 115.184 281.688 115.52 282.696C115.856 283.688 116.024 284.816 116.024 286.08C116.024 287.168 115.896 288.168 115.64 289.08C115.4 289.976 115.048 290.768 114.584 291.456C114.12 292.144 113.56 292.712 112.904 293.16C112.264 293.608 111.544 293.92 110.744 294.096C111.112 294.72 111.616 295.176 112.256 295.464C112.912 295.752 113.624 295.896 114.392 295.896C114.744 295.896 115.056 295.872 115.328 295.824C115.616 295.792 115.872 295.736 116.096 295.656L116.6 297.72C116.328 297.848 115.976 297.952 115.544 298.032C115.112 298.128 114.624 298.176 114.08 298.176ZM122.428 294.288C121.164 294.288 120.244 293.888 119.668 293.088C119.092 292.272 118.804 291.112 118.804 289.608V282.216H121.564V289.248C121.564 290.224 121.708 290.912 121.996 291.312C122.284 291.712 122.748 291.912 123.388 291.912C123.9 291.912 124.348 291.784 124.732 291.528C125.132 291.272 125.556 290.856 126.004 290.28V282.216H128.764V294H126.508L126.292 292.272H126.22C125.708 292.88 125.148 293.368 124.54 293.736C123.948 294.104 123.244 294.288 122.428 294.288ZM135.116 294.288C134.076 294.288 133.236 293.976 132.596 293.352C131.956 292.712 131.636 291.872 131.636 290.832C131.636 290.208 131.764 289.656 132.02 289.176C132.292 288.68 132.708 288.256 133.268 287.904C133.844 287.552 134.564 287.256 135.428 287.016C136.308 286.776 137.356 286.592 138.572 286.464C138.556 286.16 138.508 285.872 138.428 285.6C138.364 285.312 138.244 285.064 138.068 284.856C137.908 284.632 137.692 284.464 137.42 284.352C137.148 284.224 136.812 284.16 136.412 284.16C135.836 284.16 135.268 284.272 134.708 284.496C134.164 284.72 133.628 284.992 133.1 285.312L132.092 283.464C132.748 283.048 133.484 282.688 134.3 282.384C135.116 282.08 135.996 281.928 136.94 281.928C138.412 281.928 139.508 282.368 140.228 283.248C140.964 284.112 141.332 285.368 141.332 287.016V294H139.052L138.86 292.704H138.764C138.236 293.152 137.668 293.528 137.06 293.832C136.468 294.136 135.82 294.288 135.116 294.288ZM136.004 292.128C136.484 292.128 136.916 292.016 137.3 291.792C137.7 291.568 138.124 291.248 138.572 290.832V288.192C137.772 288.288 137.1 288.416 136.556 288.576C136.012 288.736 135.572 288.92 135.236 289.128C134.9 289.32 134.66 289.544 134.516 289.8C134.372 290.056 134.3 290.328 134.3 290.616C134.3 291.144 134.46 291.528 134.78 291.768C135.1 292.008 135.508 292.128 136.004 292.128ZM147.323 294.288C146.331 294.288 145.635 293.992 145.235 293.4C144.835 292.808 144.635 292 144.635 290.976V277.056H147.395V291.12C147.395 291.456 147.459 291.696 147.587 291.84C147.715 291.968 147.851 292.032 147.995 292.032C148.059 292.032 148.115 292.032 148.163 292.032C148.227 292.032 148.315 292.016 148.427 291.984L148.787 294.048C148.419 294.208 147.931 294.288 147.323 294.288ZM151.15 294V282.216H153.91V294H151.15ZM152.542 280.152C152.046 280.152 151.638 280.008 151.318 279.72C150.998 279.432 150.838 279.056 150.838 278.592C150.838 278.128 150.998 277.752 151.318 277.464C151.638 277.16 152.046 277.008 152.542 277.008C153.038 277.008 153.446 277.16 153.766 277.464C154.086 277.752 154.246 278.128 154.246 278.592C154.246 279.056 154.086 279.432 153.766 279.72C153.446 280.008 153.038 280.152 152.542 280.152ZM157.912 294V284.4H156.328V282.336L157.912 282.216V280.992C157.912 280.384 157.984 279.824 158.128 279.312C158.272 278.784 158.504 278.336 158.824 277.968C159.144 277.584 159.544 277.288 160.024 277.08C160.52 276.872 161.12 276.768 161.824 276.768C162.24 276.768 162.632 276.808 163 276.888C163.384 276.968 163.712 277.064 163.984 277.176L163.456 279.24C163.024 279.048 162.592 278.952 162.16 278.952C161.168 278.952 160.672 279.616 160.672 280.944V282.216H162.976V284.4H160.672V294H157.912ZM165.049 294V282.216H167.809V294H165.049ZM166.441 280.152C165.945 280.152 165.537 280.008 165.217 279.72C164.897 279.432 164.737 279.056 164.737 278.592C164.737 278.128 164.897 277.752 165.217 277.464C165.537 277.16 165.945 277.008 166.441 277.008C166.937 277.008 167.345 277.16 167.665 277.464C167.985 277.752 168.145 278.128 168.145 278.592C168.145 279.056 167.985 279.432 167.665 279.72C167.345 280.008 166.937 280.152 166.441 280.152ZM176.37 294.288C175.554 294.288 174.794 294.152 174.09 293.88C173.386 293.592 172.77 293.184 172.242 292.656C171.714 292.128 171.298 291.488 170.994 290.736C170.706 289.968 170.562 289.096 170.562 288.12C170.562 287.16 170.714 286.296 171.018 285.528C171.322 284.76 171.722 284.112 172.218 283.584C172.73 283.056 173.314 282.648 173.97 282.36C174.626 282.072 175.298 281.928 175.986 281.928C176.786 281.928 177.49 282.064 178.098 282.336C178.706 282.608 179.21 282.992 179.61 283.488C180.026 283.984 180.338 284.576 180.546 285.264C180.754 285.952 180.858 286.704 180.858 287.52C180.858 287.792 180.842 288.048 180.81 288.288C180.794 288.528 180.77 288.72 180.738 288.864H173.25C173.378 289.92 173.746 290.736 174.354 291.312C174.978 291.872 175.77 292.152 176.73 292.152C177.242 292.152 177.714 292.08 178.146 291.936C178.594 291.776 179.034 291.56 179.466 291.288L180.402 293.016C179.842 293.384 179.218 293.688 178.53 293.928C177.842 294.168 177.122 294.288 176.37 294.288ZM173.226 286.992H178.458C178.458 286.08 178.258 285.368 177.858 284.856C177.474 284.328 176.874 284.064 176.058 284.064C175.354 284.064 174.738 284.312 174.21 284.808C173.682 285.304 173.354 286.032 173.226 286.992ZM187.622 294.288C186.134 294.288 184.95 293.752 184.07 292.68C183.206 291.592 182.774 290.072 182.774 288.12C182.774 287.16 182.91 286.296 183.182 285.528C183.47 284.76 183.846 284.112 184.31 283.584C184.774 283.056 185.302 282.648 185.894 282.36C186.502 282.072 187.126 281.928 187.766 281.928C188.438 281.928 189.006 282.048 189.47 282.288C189.934 282.512 190.398 282.824 190.862 283.224L190.766 281.328V277.056H193.526V294H191.246L191.054 292.728H190.958C190.526 293.16 190.022 293.528 189.446 293.832C188.87 294.136 188.262 294.288 187.622 294.288ZM188.294 292.008C189.174 292.008 189.998 291.568 190.766 290.688V285.192C190.35 284.824 189.942 284.568 189.542 284.424C189.158 284.28 188.766 284.208 188.366 284.208C187.598 284.208 186.95 284.544 186.422 285.216C185.894 285.888 185.63 286.848 185.63 288.096C185.63 289.376 185.854 290.352 186.302 291.024C186.766 291.68 187.43 292.008 188.294 292.008ZM202.086 294V278.304H206.286C208.686 278.304 210.558 278.952 211.902 280.248C213.246 281.544 213.918 283.488 213.918 286.08C213.918 287.376 213.742 288.52 213.39 289.512C213.054 290.504 212.558 291.336 211.902 292.008C211.262 292.664 210.478 293.16 209.55 293.496C208.638 293.832 207.598 294 206.43 294H202.086ZM204.87 291.744H206.094C207.694 291.744 208.918 291.288 209.766 290.376C210.63 289.448 211.062 288.016 211.062 286.08C211.062 284.16 210.63 282.76 209.766 281.88C208.902 281 207.678 280.56 206.094 280.56H204.87V291.744ZM221.67 294.288C220.934 294.288 220.23 294.152 219.558 293.88C218.886 293.608 218.286 293.208 217.758 292.68C217.246 292.152 216.838 291.504 216.534 290.736C216.23 289.968 216.078 289.096 216.078 288.12C216.078 287.144 216.23 286.272 216.534 285.504C216.838 284.736 217.246 284.088 217.758 283.56C218.286 283.032 218.886 282.632 219.558 282.36C220.23 282.072 220.934 281.928 221.67 281.928C222.406 281.928 223.11 282.072 223.782 282.36C224.47 282.632 225.07 283.032 225.582 283.56C226.094 284.088 226.502 284.736 226.806 285.504C227.126 286.272 227.286 287.144 227.286 288.12C227.286 289.096 227.126 289.968 226.806 290.736C226.502 291.504 226.094 292.152 225.582 292.68C225.07 293.208 224.47 293.608 223.782 293.88C223.11 294.152 222.406 294.288 221.67 294.288ZM221.67 292.032C222.534 292.032 223.214 291.68 223.71 290.976C224.206 290.256 224.454 289.304 224.454 288.12C224.454 286.92 224.206 285.968 223.71 285.264C223.214 284.544 222.534 284.184 221.67 284.184C220.806 284.184 220.126 284.544 219.63 285.264C219.15 285.968 218.91 286.92 218.91 288.12C218.91 289.304 219.15 290.256 219.63 290.976C220.126 291.68 220.806 292.032 221.67 292.032ZM234.938 294.288C234.138 294.288 233.386 294.152 232.682 293.88C231.994 293.608 231.394 293.208 230.882 292.68C230.37 292.152 229.97 291.504 229.682 290.736C229.394 289.968 229.25 289.096 229.25 288.12C229.25 287.144 229.41 286.272 229.73 285.504C230.05 284.736 230.482 284.088 231.026 283.56C231.57 283.032 232.194 282.632 232.898 282.36C233.618 282.072 234.37 281.928 235.154 281.928C235.922 281.928 236.578 282.056 237.122 282.312C237.682 282.568 238.178 282.88 238.61 283.248L237.266 285.048C236.946 284.776 236.626 284.568 236.306 284.424C236.002 284.264 235.666 284.184 235.298 284.184C234.338 284.184 233.562 284.544 232.97 285.264C232.378 285.968 232.082 286.92 232.082 288.12C232.082 289.304 232.37 290.256 232.946 290.976C233.538 291.68 234.298 292.032 235.226 292.032C235.69 292.032 236.122 291.936 236.522 291.744C236.938 291.536 237.314 291.296 237.65 291.024L238.778 292.848C238.218 293.328 237.602 293.688 236.93 293.928C236.274 294.168 235.61 294.288 234.938 294.288ZM245.021 294.288C244.333 294.288 243.749 294.184 243.269 293.976C242.805 293.768 242.421 293.48 242.117 293.112C241.829 292.728 241.613 292.28 241.469 291.768C241.341 291.24 241.277 290.656 241.277 290.016V284.4H239.597V282.336L241.421 282.216L241.757 279H244.061V282.216H247.061V284.4H244.061V290.016C244.061 291.392 244.613 292.08 245.717 292.08C245.925 292.08 246.133 292.056 246.341 292.008C246.565 291.96 246.765 291.896 246.941 291.816L247.421 293.856C247.101 293.968 246.733 294.064 246.317 294.144C245.917 294.24 245.485 294.288 245.021 294.288ZM253.99 294.288C253.254 294.288 252.55 294.152 251.878 293.88C251.206 293.608 250.606 293.208 250.078 292.68C249.566 292.152 249.158 291.504 248.854 290.736C248.55 289.968 248.398 289.096 248.398 288.12C248.398 287.144 248.55 286.272 248.854 285.504C249.158 284.736 249.566 284.088 250.078 283.56C250.606 283.032 251.206 282.632 251.878 282.36C252.55 282.072 253.254 281.928 253.99 281.928C254.726 281.928 255.43 282.072 256.102 282.36C256.79 282.632 257.39 283.032 257.902 283.56C258.414 284.088 258.822 284.736 259.126 285.504C259.446 286.272 259.606 287.144 259.606 288.12C259.606 289.096 259.446 289.968 259.126 290.736C258.822 291.504 258.414 292.152 257.902 292.68C257.39 293.208 256.79 293.608 256.102 293.88C255.43 294.152 254.726 294.288 253.99 294.288ZM253.99 292.032C254.854 292.032 255.534 291.68 256.03 290.976C256.526 290.256 256.774 289.304 256.774 288.12C256.774 286.92 256.526 285.968 256.03 285.264C255.534 284.544 254.854 284.184 253.99 284.184C253.126 284.184 252.446 284.544 251.95 285.264C251.47 285.968 251.23 286.92 251.23 288.12C251.23 289.304 251.47 290.256 251.95 290.976C252.446 291.68 253.126 292.032 253.99 292.032ZM262.338 294V282.216H264.618L264.81 284.304H264.906C265.322 283.536 265.826 282.952 266.418 282.552C267.01 282.136 267.618 281.928 268.242 281.928C268.802 281.928 269.25 282.008 269.586 282.168L269.106 284.568C268.898 284.504 268.706 284.456 268.53 284.424C268.354 284.392 268.138 284.376 267.882 284.376C267.418 284.376 266.93 284.56 266.418 284.928C265.906 285.28 265.466 285.904 265.098 286.8V294H262.338ZM274.438 294.288C273.622 294.288 272.814 294.136 272.014 293.832C271.23 293.512 270.55 293.12 269.974 292.656L271.27 290.88C271.798 291.296 272.318 291.624 272.83 291.864C273.358 292.088 273.926 292.2 274.534 292.2C275.174 292.2 275.646 292.072 275.95 291.816C276.254 291.544 276.406 291.2 276.406 290.784C276.406 290.544 276.334 290.336 276.19 290.16C276.046 289.968 275.854 289.8 275.614 289.656C275.374 289.512 275.102 289.384 274.798 289.272C274.494 289.144 274.19 289.016 273.886 288.888C273.502 288.744 273.11 288.576 272.71 288.384C272.31 288.192 271.95 287.96 271.63 287.688C271.326 287.416 271.07 287.104 270.862 286.752C270.67 286.384 270.574 285.952 270.574 285.456C270.574 284.416 270.958 283.568 271.726 282.912C272.494 282.256 273.542 281.928 274.87 281.928C275.686 281.928 276.422 282.072 277.078 282.36C277.734 282.648 278.302 282.976 278.782 283.344L277.51 285.024C277.094 284.72 276.67 284.48 276.238 284.304C275.822 284.112 275.382 284.016 274.918 284.016C274.326 284.016 273.886 284.144 273.598 284.4C273.326 284.64 273.19 284.944 273.19 285.312C273.19 285.552 273.254 285.76 273.382 285.936C273.526 286.096 273.71 286.24 273.934 286.368C274.158 286.496 274.414 286.616 274.702 286.728C275.006 286.84 275.318 286.952 275.638 287.064C276.038 287.208 276.438 287.376 276.838 287.568C277.238 287.744 277.598 287.968 277.918 288.24C278.254 288.512 278.518 288.848 278.71 289.248C278.918 289.632 279.022 290.096 279.022 290.64C279.022 291.152 278.918 291.632 278.71 292.08C278.518 292.512 278.23 292.896 277.846 293.232C277.462 293.552 276.982 293.808 276.406 294C275.83 294.192 275.174 294.288 274.438 294.288Z" fill="#002348"/>
<mask id="mask0_1_198" style="mask-type:alpha" maskUnits="userSpaceOnUse" x="100" y="0" width="232" height="232">
<rect x="100" width="232" height="232" rx="116" fill="white"/>
</mask>
<g mask="url(#mask0_1_198)">
<path d="M220.061 10C244.022 10 248.982 32.7626 248.994 41.1223C248.994 49.0889 247.439 50.3048 247.494 58.3803C247.53 64.514 249.308 68.8088 249.145 72.2931C248.201 90.4402 223.667 95.6726 216.662 95.7755C209.657 95.8783 179.158 89.9744 179.158 75.8681C179.158 66.0263 185.418 50.2866 185.249 39.356C184.874 16.654 203.856 10 220.061 10Z" fill="black"/>
<path fill-rule="evenodd" clip-rule="evenodd" d="M181.148 258.313L181.293 417.845L221.289 416.974L221.894 409.588L247.687 413.066L264.056 246.717L255.218 204.12L196.803 202.523L181.148 258.313Z" fill="#3B4161"/>
<path fill-rule="evenodd" clip-rule="evenodd" d="M211.441 216.877H253.93L259.683 154.106L252.006 106.004L237.489 92.0251L222.935 85.5284L196.651 89.5449L211.441 216.877Z" fill="#56ADFF"/>
<path fill-rule="evenodd" clip-rule="evenodd" d="M204.14 84.7541C194.208 85.0263 164.549 95.7936 160.218 106.718C156.927 115.005 154.671 189.989 162.402 193.649C162.898 193.889 163.417 194.079 163.95 194.218C163.485 196.516 159.032 249.742 160.164 254.17C161.295 258.598 164.265 265.3 168.566 265.058C185.207 264.06 215.779 242.217 218.815 238.654C219.281 231.903 220.569 206.546 220.569 206.546L217.92 131.308L202.755 89.8474C202.755 89.8474 214.073 84.4819 204.14 84.7541Z" fill="#F9F9F9"/>
<path fill-rule="evenodd" clip-rule="evenodd" d="M225.784 84.2823C242.86 86.4055 266.966 99.6469 270.069 105.678C272.682 110.747 271.357 176.373 271.357 176.373C271.357 176.373 261.679 189.651 266.04 208.747C270.045 226.362 271.23 250.141 267.032 254.587C260.112 251.085 251.214 237.045 249.611 233.585C248.008 230.125 247.591 210.55 246.357 206.364C245.123 202.178 239.6 128.071 239.6 128.071C239.6 128.071 237.023 98.1346 225.784 84.2823Z" fill="#F9F9F9"/>
<path d="M182.793 90.5854C191.389 106.258 208.804 124.121 217.781 130.939" stroke="#C9C9C9" stroke-width="1.20981" stroke-linecap="round" stroke-linejoin="round"/>
<path d="M234.428 86.0789C242.08 96.3985 244.052 113.935 238.057 131.743" stroke="#C9C9C9" stroke-width="1.20981" stroke-linecap="round" stroke-linejoin="round"/>
<path fill-rule="evenodd" clip-rule="evenodd" d="M191.48 134.368C191.48 131.613 193.14 129.129 195.686 128.075C198.232 127.021 201.162 127.605 203.109 129.554C205.057 131.504 205.638 134.434 204.582 136.979C203.526 139.524 201.04 141.182 198.285 141.18C194.525 141.176 191.48 138.128 191.48 134.368Z" stroke="#353823" stroke-width="2.06272" stroke-linecap="round" stroke-linejoin="round"/>
<path fill-rule="evenodd" clip-rule="evenodd" d="M194.794 134.368C194.794 132.962 195.642 131.693 196.942 131.155C198.241 130.617 199.737 130.914 200.732 131.909C201.727 132.904 202.024 134.4 201.486 135.699C200.948 136.999 199.679 137.847 198.273 137.847C196.352 137.847 194.794 136.289 194.794 134.368Z" fill="#353823"/>
<path d="M196.446 127.805C191.849 110.922 191.552 87.4278 203.42 83.1935" stroke="#353823" stroke-width="2.06272" stroke-linecap="round" stroke-linejoin="round"/>
<path d="M224.144 80.3202C230.913 83.1874 237.362 96.4106 238.874 107.734" stroke="#353823" stroke-width="2.06272" stroke-linecap="round" stroke-linejoin="round"/>
<path fill-rule="evenodd" clip-rule="evenodd" d="M231.567 129.003C229.401 118.538 232.668 109.041 238.862 107.734C245.056 106.428 251.837 113.892 253.984 124.357C256.132 134.822 252.883 144.319 246.689 145.62C240.495 146.92 233.732 139.45 231.567 129.003Z" stroke="#353823" stroke-width="2.06272" stroke-linecap="round" stroke-linejoin="round"/>
<path d="M189.441 112.543L186.828 163.422" stroke="#C9C9C9" stroke-width="1.20981" stroke-linecap="round" stroke-linejoin="round"/>
<path d="M182.085 114.044L188.878 123.516" stroke="#C9C9C9" stroke-width="1.20981" stroke-linecap="round" stroke-linejoin="round"/>
<path fill-rule="evenodd" clip-rule="evenodd" d="M204.787 159.375L178.668 165.624Z" fill="#606060"/>
<path d="M204.787 159.375L178.668 165.624" stroke="#C9C9C9" stroke-width="1.20981" stroke-linecap="round" stroke-linejoin="round"/>
<path d="M179.986 158.637L186.64 163.718" stroke="#C9C9C9" stroke-width="1.20981" stroke-linecap="round" stroke-linejoin="round"/>
<path d="M205.78 188.84C194.794 193.262 168.699 198.549 163.769 194.169C157.175 188.308 155.3 127.811 158.609 111.763C160.539 102.423 170.284 96.4106 175.365 93.991" stroke="#C9C9C9" stroke-width="1.20981" stroke-linecap="round" stroke-linejoin="round"/>
<path d="M197.928 191.429C194.794 187.455 193.597 167.638 195.109 161.692" stroke="#C9C9C9" stroke-width="1.20981" stroke-linecap="round" stroke-linejoin="round"/>
<path fill-rule="evenodd" clip-rule="evenodd" d="M198.273 165.563C198.27 164.917 198.658 164.333 199.254 164.084C199.851 163.835 200.539 163.97 200.997 164.426C201.455 164.882 201.592 165.57 201.346 166.167C201.099 166.764 200.516 167.154 199.87 167.154C199.447 167.156 199.04 166.989 198.741 166.69C198.441 166.392 198.273 165.986 198.273 165.563Z" fill="#C9C9C9"/>
<path fill-rule="evenodd" clip-rule="evenodd" d="M195.363 214.137C191.89 215.478 188.198 216.165 184.475 216.164C181.712 216.137 178.966 215.73 176.315 214.954C176.115 215.721 176.008 216.509 175.994 217.301V229.937C175.994 235.45 180.463 239.918 185.975 239.918C191.487 239.918 195.956 235.45 195.956 229.937V217.289C195.93 216.213 195.73 215.149 195.363 214.137V214.137Z" stroke="#C9C9C9" stroke-width="1.20981" stroke-linecap="round" stroke-linejoin="round"/>
<path fill-rule="evenodd" clip-rule="evenodd" d="M234.077 125.246H286.238C289.402 125.246 291.289 127.72 290.472 130.769L270.335 204.846C269.328 208.038 266.421 210.25 263.076 210.369H210.945C207.788 210.369 205.894 207.895 206.711 204.846L226.842 130.769C227.845 127.584 230.741 125.374 234.077 125.246Z" fill="#007DF2"/>
<path fill-rule="evenodd" clip-rule="evenodd" d="M248.474 121.436H278.078C278.746 121.38 279.396 121.671 279.8 122.206C280.203 122.741 280.305 123.446 280.068 124.073L278.628 129.106C278.129 130.629 276.734 131.681 275.132 131.743H245.528C244.861 131.795 244.213 131.504 243.81 130.97C243.407 130.436 243.304 129.733 243.538 129.106L244.977 124.073C245.48 122.551 246.873 121.501 248.474 121.436Z" fill="#FF9F6B"/>
<path fill-rule="evenodd" clip-rule="evenodd" d="M204.636 163.005C206.942 161.671 209.392 160.602 211.937 159.817C215.609 156.792 218.307 144.845 219.281 144.089C220.255 143.333 223.515 143.823 223.612 144.954C224.036 149.098 223.812 153.937 220.14 158.262C230.823 151.469 231.633 148.457 234.573 150.731C237.513 153.005 238.571 164.099 236.049 168.685C229.105 181.339 210.837 183.051 205.247 183.136C203.856 177.117 203.856 169.84 204.636 163.005Z" fill="#F77F89"/>
<path d="M236.454 154.022L227.108 161.504" stroke="#A7464F" stroke-width="2.06272" stroke-linecap="round" stroke-linejoin="round"/>
<path d="M237.452 161.765L225.584 171.201" stroke="#A7464F" stroke-width="2.06272" stroke-linecap="round" stroke-linejoin="round"/>
<path fill-rule="evenodd" clip-rule="evenodd" d="M289.571 161.408C289.426 158.915 290.176 153.381 292.39 148.1C293.2 146.188 293.249 143.043 290.4 143.043C287.157 143.043 282.82 149.551 284.955 157.3C287.091 165.049 289.783 164.928 289.571 161.408Z" fill="#F77F89"/>
<path fill-rule="evenodd" clip-rule="evenodd" d="M279.529 146.763C282.106 146.763 289.94 162.261 289.885 164.142C289.831 166.023 289.014 168.884 287.799 168.739C286.583 168.594 276.408 155.643 276.408 151.245C276.408 148.699 277.648 146.763 279.529 146.763Z" fill="#F77F89"/>
<path fill-rule="evenodd" clip-rule="evenodd" d="M276.166 155.667C279.378 155.667 287.847 168.019 287.907 169.435C287.968 170.85 286.256 172.151 284.841 172.211C283.425 172.272 273.305 163.972 273.305 160.113C273.287 157.754 274.351 155.667 276.166 155.667Z" fill="#F77F89"/>
<path fill-rule="evenodd" clip-rule="evenodd" d="M279.13 178.768C280.522 178.702 284.393 175.242 284.393 172.52C284.393 171.449 281.689 168.679 280.334 168.763C278.979 168.848 276.215 174.056 276.269 175.381C276.323 176.706 277.309 178.835 279.13 178.768Z" fill="#F77F89"/>
<path d="M284.393 152.491C287.169 157.113 289.916 163.029 289.885 164.142" stroke="#A7464F" stroke-width="2.06272" stroke-linecap="round" stroke-linejoin="round"/>
<path d="M278.108 156.574C281.931 159.454 287.841 168.255 287.889 169.435" stroke="#A94B53" stroke-width="2.06272" stroke-linecap="round" stroke-linejoin="round"/>
<path fill-rule="evenodd" clip-rule="evenodd" d="M194.54 45.3809C194.54 31.5346 205.616 20.2834 219.305 20.2834C232.994 20.2834 244.046 31.5104 244.046 45.3567C244.046 59.203 232.946 70.4542 219.305 70.4542C205.665 70.4542 194.54 59.2332 194.54 45.3809Z" fill="#F77F89"/>
<path fill-rule="evenodd" clip-rule="evenodd" d="M215.639 47.1895C215.906 45.5926 216.849 44.413 217.793 44.5703C218.737 44.7276 219.257 46.1431 219.003 47.74C218.749 49.3369 217.793 50.5165 216.849 50.3653C215.906 50.2141 215.379 48.7925 215.639 47.1895Z" fill="#B5545C"/>
<path fill-rule="evenodd" clip-rule="evenodd" d="M234.277 48.3873C234.525 46.8931 235.42 45.7922 236.285 45.9374C237.15 46.0826 237.652 47.4073 237.41 48.9014C237.168 50.3955 236.261 51.4904 235.396 51.321C234.531 51.1517 234.029 49.8814 234.277 48.3873Z" fill="#B5545C"/>
<path fill-rule="evenodd" clip-rule="evenodd" d="M198.321 56.4204C199.791 60.5095 203.487 81.7598 202.555 89.4784C206.427 95.346 223.679 93.7128 228.82 88.7465C226.262 81.6026 226.165 76.479 227.102 70.4542C227.992 64.8165 196.851 52.3433 198.321 56.4204Z" fill="#F77F89"/>
<path d="M229.099 19.6785C229.31 25.6368 223.872 31.3289 209.088 34.1539C210.709 38.3337 210.843 44.6187 202.767 45.7499C193.349 47.0565 192.58 35.0249 192.58 35.0249L206.687 18.3598C206.687 18.3598 228.893 13.7081 229.099 19.6785Z" fill="black"/>
<path d="M224.659 15.4865C224.054 20.7794 230.145 33.6336 244.251 33.9845C254.281 33.9845 225.245 10.1875 224.659 15.4865Z" fill="black"/>
<path fill-rule="evenodd" clip-rule="evenodd" d="M208.296 69.565C206.941 67.8531 208.901 60.0498 211.036 56.4748C213.613 54.9565 222.753 56.2208 227.465 52.1679C228.851 50.9581 229.595 51.8534 230.671 53.1781C232.565 55.5009 238.257 56.7047 240.386 58.0173C240.701 61.4048 237.591 69.1597 236.249 70.8958C234.143 73.6481 214.901 73.8961 208.296 69.565Z" fill="white"/>
<path d="M212.282 57.1826C211.036 55.1017 205.592 45.7922 203.856 43.4331" stroke="white" stroke-width="2.06272" stroke-linecap="round" stroke-linejoin="round"/>
<path d="M209.367 69.0689C205.683 69.0689 196.924 57.5455 195.926 53.6802" stroke="white" stroke-width="2.06272" stroke-linecap="round" stroke-linejoin="round"/>
<path fill-rule="evenodd" clip-rule="evenodd" d="M190.306 47.4376C190.306 42.9843 193.916 39.3742 198.369 39.3742C202.823 39.3742 206.433 42.9843 206.433 47.4376C206.433 51.8908 202.823 55.5009 198.369 55.5009C193.916 55.5009 190.306 51.8908 190.306 47.4376V47.4376Z" fill="#F77F89"/>
<path d="M219.723 222.709L247.972 221.826" stroke="#737999" stroke-width="1.02834" stroke-linecap="round" stroke-linejoin="round"/>
<path d="M176.048 263.576C166.975 267.375 160.164 260.606 160.109 253.898C160.055 247.189 162.71 207.163 163.073 203.17" stroke="#C9C9C9" stroke-width="1.20981" stroke-linecap="round" stroke-linejoin="round"/>
<path d="M271.218 115.253C271.69 101.558 257.269 95.2916 251.335 92.6058" stroke="#C9C9C9" stroke-width="1.20981" stroke-linecap="round" stroke-linejoin="round"/>
<path d="M268.399 251.962C269.53 244.661 269.609 224.904 267.698 217.367" stroke="#C9C9C9" stroke-width="1.20981" stroke-linecap="round" stroke-linejoin="round"/>
</g>
<defs>
<filter id="filter0_d_1_198" x="0" y="51" width="432" height="386" filterUnits="userSpaceOnUse" color-interpolation-filters="sRGB">
<feFlood flood-opacity="0" result="BackgroundImageFix"/>
<feColorMatrix in="SourceAlpha" type="matrix" values="0 0 0 0 0 0 0 0 0 0 0 0 0 0 0 0 0 0 127 0" result="hardAlpha"/>
<feMorphology radius="25" operator="dilate" in="SourceAlpha" result="effect1_dropShadow_1_198"/>
<feOffset dy="10"/>
<feGaussianBlur stdDeviation="25"/>
<feColorMatrix type="matrix" values="0 0 0 0 0 0 0 0 0 0.231373 0 0 0 0 0.47451 0 0 0 0.0725798 0"/>
<feBlend mode="normal" in2="BackgroundImageFix" result="effect1_dropShadow_1_198"/>
<feBlend mode="normal" in="SourceGraphic" in2="effect1_dropShadow_1_198" result="shape"/>
</filter>
</defs>
</svg>
